<svg version="1.1" xmlns="http://www.w3.org/2000/svg" xmlns:xlink="http://www.w3.org/1999/xlink" width="818.99795" height="710.9982" viewBox="318.09924,1.70001,818.99795,710.9982"><defs><clipPath id="clip-1"><rect x="238.57503" y="1.27501" transform="scale(1.33333,1.33333)" width="614.25" height="533.24998" id="clip-1" fill="none" fill-rule="nonzero" stroke="none"/></clipPath><linearGradient x1="634" y1="550" x2="527.00328" y2="326.25401" gradientUnits="userSpaceOnUse" id="color-1"><stop offset="0" stop-color="#b300c1"/><stop offset="1" stop-color="#2b009c"/></linearGradient></defs><g id="document" fill="#ffffff" fill-rule="nonzero" stroke="#000000" stroke-width="0" stroke-linecap="butt" stroke-linejoin="miter" stroke-miterlimit="10" stroke-dasharray="" stroke-dashoffset="0" font-family="none" font-weight="none" font-size="none" text-anchor="none" style="mix-blend-mode: normal"><rect x="397.5" y="2.85714" transform="scale(1,1.4)" width="700" height="500" id="Shape 1 1" vector-effect="non-scaling-stroke"/></g><g fill="none" fill-rule="none" stroke="none" stroke-width="1" stroke-linecap="butt" stroke-linejoin="miter" stroke-miterlimit="10" stroke-dasharray="" stroke-dashoffset="0" font-family="none" font-weight="none" font-size="none" text-anchor="none" style="mix-blend-mode: normal"><g><g id="stage"><g id="layer1 1"><g clip-path="url(#clip-1)" id="Group 1"><g id="Group 1" fill="url(#color-1)" fill-rule="evenodd" stroke="#000000"><path d="M764.85004,76.77814c-58.08854,31.66667 -102.03125,68.28125 -142.41667,118.69792c-23.53646,29.375 -46.34896,68.13021 -42.41667,72.05729c0.98437,0.98437 1.78646,0.46875 1.78646,-1.14583c0,-5.64583 25.10417,-44.68229 42.40625,-65.94271c9.59896,-11.79688 26.5625,-30.45833 37.70313,-41.46354c37.86979,-37.44271 111.63542,-88.31771 122.17187,-84.27605c3.49479,1.34375 4.43229,7.94271 4.43229,31.20833v29.50521l-16.58854,5.22396c-54.29167,17.11458 -108.63542,51.50521 -155.29687,98.27084c-17.91667,17.96354 -31.95833,33.27604 -31.20313,34.03646c0.75521,0.75 13.39583,-10.45313 28.08333,-24.91146c54.03646,-53.16667 102.79687,-83.40625 169.40625,-105.04688c35.00521,-11.375 81.375,-21.43229 98.90625,-21.45313c7.39583,-0.00521 8.15625,1.27083 11.23437,18.96354c5.00521,28.73958 5.14583,28.34375 -10.92708,30.54688c-75.1875,10.30729 -176.8125,45.92188 -230.0625,80.63021c-22.67187,14.78125 -67.26562,55.8125 -67.26562,61.89584c0,1.47396 -4.64063,2.68229 -10.3125,2.68229c-9.00521,0 -12,-2.18229 -23.66667,-17.22396c-7.34896,-9.47396 -17.875,-21.4375 -23.39063,-26.58333c-20.125,-18.76042 -67.90625,-43.30208 -93.84375,-48.19792c-13.58854,-2.55729 -16.55208,-6.28125 -16.55208,-20.79688c0,-17.0625 3.79687,-18.45313 33.58854,-12.29688c44.42188,9.1875 77.84896,32.67708 104.49479,73.42709c7.8125,11.94792 14.90625,23.40625 15.76042,25.46354c1.10937,2.65625 2.90104,2.07812 6.19271,-2.00521c3.44792,-4.27604 3.78646,-6.76562 1.31771,-9.73437c-1.81771,-2.19792 -2.21354,-3.99479 -0.875,-3.99479c1.33854,0 0.38021,-1.68229 -2.13542,-3.74479c-2.52083,-2.05729 -6.27604,-9.80729 -8.35417,-17.22396c-13.33333,-47.60938 -63.86979,-97.01042 -106.28646,-103.89063l-10.42708,-1.69271l-0.91146,17.29167l-0.91146,17.29688l-35.94792,0.59375l0.97396,18.72396c0.95313,18.26563 0.79167,18.72396 -6.5625,18.72396c-4.14583,0 -8.20833,1.08333 -9.02604,2.40104c-0.8125,1.32292 14.75521,43.44792 34.59896,93.61979c51.08333,129.125 63.59896,162.44271 82.27083,218.96355l16.46875,49.85938l17.03125,1.91667c26.90625,3.03125 45.49479,7.84375 66.1875,17.125c10.55729,4.73958 19.69271,8.11458 20.30208,7.50521c0.61458,-0.60417 -0.45313,-5.00521 -2.36458,-9.76042c-1.90625,-4.76042 -3.6875,-21.46354 -3.95833,-37.11459c-0.47396,-27.63021 -1.17188,-30.29167 -23.89063,-91.36979c-26.16667,-70.35938 -41.45833,-115.625 -39.66146,-117.42188c1.8125,-1.8125 19.34375,41.66146 44.02604,109.1823c12.19792,33.36458 22.88021,60.64584 23.73438,60.63021c0.85937,-0.02083 5.34375,-9.39583 9.97917,-20.83333c6.44271,-15.92188 7.69271,-22.14583 5.34375,-26.53125c-3.86458,-7.22396 -0.5625,-11.05208 4.06771,-4.71875c2.92187,4 5.17708,2.07292 14.96875,-12.78125c21.03125,-31.90625 56.89583,-73.26042 120.29687,-138.72396c21.58854,-22.29167 49.29167,-51.99479 61.5625,-66c53.82813,-61.44792 58.38021,-72.49479 49.39583,-119.82813l-3.69271,-19.47396l-12.32813,-0.90625c-6.77604,-0.5 -27.60417,2.53125 -46.27604,6.73958c-18.67708,4.20313 -35.5,7.64583 -37.39063,7.64583c-2.25,0 -4.18229,-11.40625 -5.59375,-32.95313c-1.18229,-18.125 -3.01563,-32.9375 -4.06771,-32.91146c-1.05729,0.02604 -11.89583,5.47917 -24.08854,12.125M453.03233,166.84064c0.02604,7.20833 1.03646,14.45833 2.24479,16.10417c1.21354,1.64583 9.61979,5.50521 18.67708,8.57292c32.14063,10.88021 58.69271,32.16146 84.76563,67.93229l5.375,7.375l-1.875,-8.98437c-8.58854,-41.16667 -60.40625,-94.33855 -99.56771,-102.17188l-9.66667,-1.93229zM785.5167,157.48127l-7.48958,2.40104l7.48958,0.08333c4.11979,0.05208 10.1875,-1.06771 13.48437,-2.48437l5.98958,-2.57292l-5.98958,0.08854c-3.29687,0.04687 -9.36458,1.16667 -13.48437,2.48438M823.74066,166.20523c-11.10937,2.86458 -21.21875,6.28125 -22.46875,7.59896c-1.25,1.31771 1.09896,1.32292 5.21875,0.01563c4.11979,-1.3125 18.27083,-4.71354 31.45312,-7.55729c13.18229,-2.84896 19.92188,-5.19792 14.97917,-5.21875c-4.94271,-0.02083 -18.07813,2.30208 -29.18229,5.16146M740.5792,172.46043c-2.46875,1.59375 -3.14063,2.90104 -1.49479,2.90104c1.64583,0 5.01563,-1.30729 7.48958,-2.90104c2.46875,-1.59896 3.14583,-2.90104 1.49479,-2.90104c-1.64583,0 -5.01562,1.30208 -7.48958,2.90104M725.60524,178.45002c-2.47396,1.59896 -3.14583,2.90625 -1.5,2.90625c1.64583,0 5.01563,-1.30729 7.48958,-2.90625c2.46875,-1.59375 3.14583,-2.90104 1.5,-2.90104c-1.65104,0 -5.02083,1.30729 -7.48958,2.90104M713.62087,184.44481c-2.69792,1.73958 -3.07292,2.91667 -0.92708,2.94792c1.96354,0.02604 4.40104,-1.30208 5.42188,-2.94792c2.29687,-3.72396 1.26042,-3.72396 -4.49479,0M942.79795,199.42398c1.01562,1.64583 2.44271,2.99479 3.17187,2.99479c0.72917,0 1.32292,-1.34896 1.32292,-2.99479c0,-1.65104 -1.43229,-3 -3.17187,-3c-1.74479,0 -2.34375,1.34896 -1.32292,3M714.37087,202.51252c-10.03646,4.03125 -8.16146,6.07813 2.24479,2.45313c4.94271,-1.72396 8.98958,-3.67708 8.98958,-4.33854c0,-1.77604 -3.64583,-1.16667 -11.23437,1.88542M1042.9542,223.92919c5.05729,7.70833 9.1875,15.35938 9.1875,16.99479c0,1.63542 3.1875,6.78646 7.08333,11.44271c8.61979,10.3125 18.29167,29.27604 21.13021,41.42188c1.15104,4.94271 4.60938,14.38021 7.68229,20.96875c14.85417,31.88021 18.07292,116.36979 5.10417,133.9375c-4.86979,6.59375 -5.29687,8.95313 -2.27083,12.59375c2.97917,3.59375 2.77083,7.75 -1.06771,20.94271c-2.63021,9.05729 -6.02604,17.22917 -7.54687,18.17188c-1.51563,0.9375 -4.83854,8.85937 -7.38021,17.60938c-5.6875,19.55729 -32.52083,61 -42.42187,65.51563c-4,1.81771 -7.44271,4.44271 -7.64583,5.82813c-0.23958,1.58854 -0.5,3.17708 -0.77083,4.76042c-1.41146,8 -32.11458,34.67708 -58.77083,51.06771c-27.95833,17.1875 -73.41667,34.34896 -102.125,38.5625c-20.25,2.97396 -61.875,3.16667 -83.61458,0.38542l-16.47917,-2.10937l16.47917,4.4375c22.00521,5.92708 92.4375,4.09896 119.83333,-3.10937c29.95833,-7.88542 77.69792,-32.28646 102.99479,-52.63021c54.54687,-43.88542 92.85417,-109.33334 103.78646,-177.33855c4.67708,-29.09375 2.29687,-92.99479 -4.38021,-117.65105c-11.88542,-43.88542 -34.77083,-89.58855 -57.01042,-113.83855l-10.98437,-11.98438zM896.36045,218.71564c0,2.56771 1.34896,4.67187 3,4.67187c1.64583,0 2.99479,-1.26563 2.99479,-2.81771c0,-1.55208 -1.34896,-3.65104 -2.99479,-4.67187c-1.65104,-1.01563 -3,0.25 -3,2.81771M937.09483,216.92919c-1.03646,1.67708 -0.42187,3.95313 1.35937,5.05208c4.60417,2.84896 7.57813,-1.05208 3.73437,-4.89583c-2.15104,-2.15104 -3.82813,-2.20312 -5.09375,-0.15625M974.25108,220.21564c0,1.55208 1.34896,3.65104 3,4.67187c1.64583,1.01563 2.99479,-0.25521 2.99479,-2.82292c0,-2.5625 -1.34896,-4.66667 -2.99479,-4.66667c-1.65104,0 -3,1.26562 -3,2.81771M1004.20941,220.03856c0,1.64583 1.34896,3.82813 2.99479,4.84896c1.65104,1.01563 3,0.5 3,-1.14583c0,-1.64583 -1.34896,-3.82813 -3,-4.84896c-1.64583,-1.01563 -2.99479,-0.5 -2.99479,1.14583M880.46462,240.28335c-2.39063,2.39063 0.3125,7.07292 4.09375,7.07292c1.55208,0 2.81771,-2.02604 2.81771,-4.49479c0,-4.63021 -3.53646,-5.95313 -6.91146,-2.57813M928.11045,240.89794c-1.03646,1.67708 -0.42708,3.94792 1.35417,5.05208c4.60937,2.84375 7.58333,-1.05208 3.73437,-4.90104c-2.15104,-2.15104 -3.82813,-2.19792 -5.08854,-0.15104M968.72504,243.01773c0.56771,2.93229 2.84896,5.94271 5.06771,6.67708c2.57292,0.86458 3.65625,-0.57813 2.99479,-3.99479c-0.57292,-2.9375 -2.84896,-5.94271 -5.06771,-6.68229c-2.57813,-0.85937 -3.65625,0.58333 -2.99479,4M1006.02712,245.60627c1.00521,2.60937 3.13542,4.74479 4.74479,4.74479c3.9375,0 1.47396,-6.8125 -3.00521,-8.30208c-2.1875,-0.72917 -2.85937,0.64063 -1.73958,3.55729M1034.16774,244.00731c0,1.64583 1.34896,3.82812 2.99479,4.84375c1.65104,1.02083 3,0.50521 3,-1.14063c0,-1.65104 -1.34896,-3.83333 -3,-4.84896c-1.64583,-1.02083 -2.99479,-0.50521 -2.99479,1.14583M859.41774,264.33023c-3.44792,3.44792 -2.1875,6.98958 2.49479,6.98958c2.46875,0 4.49479,-2.02083 4.49479,-4.49479c0,-4.67708 -3.54688,-5.94271 -6.98958,-2.49479M912.56879,266.45523c-2.54167,6.61458 0.83854,9.98958 5.41667,5.41146c2.69792,-2.69792 2.70833,-4.375 0.04688,-7.03646c-2.66667,-2.66667 -3.96875,-2.28125 -5.46354,1.625M959.27191,267.96044c0,3.65625 1.91146,6.35417 4.49479,6.35417c2.47396,0 4.49479,-1.18229 4.49479,-2.63021c0,-1.44271 -2.02083,-4.30208 -4.49479,-6.35417c-3.75521,-3.11458 -4.49479,-2.6875 -4.49479,2.63021M998.21983,267.96044c0,1.44271 2.02083,4.30208 4.49479,6.35417c3.75,3.11979 4.48958,2.6875 4.48958,-2.63021c0,-3.65104 -1.90625,-6.35417 -4.48958,-6.35417c-2.47396,0 -4.49479,1.18229 -4.49479,2.63021M1034.16774,271.14273c0,1.55208 1.34896,3.65104 2.99479,4.67188c1.65104,1.02083 3,-0.25 3,-2.81771c0,-2.56771 -1.34896,-4.67187 -3,-4.67187c-1.64583,0 -2.99479,1.26563 -2.99479,2.81771M834.824,292.49169c-2.75521,4.46354 0.44271,6.88542 6.17708,4.6875c2.64583,-1.01563 3.97396,-3.20833 2.94792,-4.86458c-2.42708,-3.93229 -6.63542,-3.84896 -9.125,0.17708M891.87087,292.29377c-2.1875,3.53125 0.64583,8.98438 4.66667,8.98438c1.55208,0 2.82292,-2.69792 2.82292,-5.98958c0,-6.31771 -4.35937,-8.0625 -7.48958,-2.99479M942.89691,292.13231c-2.63542,4.26563 0.72396,9.14583 6.28646,9.14583c2.625,0 4.13021,-2.10417 3.56771,-4.99479c-1.16667,-6.01563 -7.14583,-8.53125 -9.85417,-4.15104M989.7615,297.28335c1.45833,7.52083 8.45833,8.54687 8.45833,1.25c0,-3.68229 -1.9375,-6.23958 -4.71354,-6.23958c-2.79167,0 -4.31771,2.03646 -3.74479,4.98958M1028.21983,294.53856c0.03125,1.23438 1.30208,4.22917 2.83854,6.65104c3.44792,5.45833 7.5,2.04687 5.07292,-4.27604c-1.79167,-4.66667 -7.99479,-6.53125 -7.91146,-2.375M1061.13129,298.28335c0,1.64583 1.42708,2.99479 3.17187,2.99479c1.74479,0 2.33854,-1.34896 1.32292,-2.99479c-1.02083,-1.64583 -2.44792,-2.99479 -3.17187,-2.99479c-0.72917,0 -1.32292,1.34896 -1.32292,2.99479M808.54795,318.19481c-4.11458,4.11458 -1.97917,10.46875 3.18229,9.47917c2.88542,-0.55729 5.24479,-2.90625 5.24479,-5.21354c0,-4.73437 -5.28646,-7.40625 -8.42708,-4.26562M868.46462,318.19481c-4.23958,4.23958 -1.83854,10.04687 4.15104,10.04687c4.1875,0 5.89583,-1.63021 5.23958,-4.99479c-1.06771,-5.51562 -6.18229,-8.26562 -9.39062,-5.05208M923.84483,324.22086c0.58333,3.03646 3.0625,5.51563 5.51562,5.51563c6.41667,0 5.48958,-8.70313 -1.06771,-9.96354c-4,-0.77083 -5.21875,0.44792 -4.44792,4.44792M974.25108,323.56981c0,5.22396 4.91667,8.6875 8.85937,6.25c3.98438,-2.46354 0.39583,-10.56771 -4.68229,-10.56771c-2.29687,0 -4.17708,1.94271 -4.17708,4.31771M1019.68858,325.66356c0.55208,3.88542 2.34896,6.73438 3.99479,6.32292c4.42187,-1.10417 3.64063,-10.52083 -1,-12.06771c-2.73958,-0.91146 -3.68229,0.89063 -2.99479,5.74479M1055.1417,326.56461c0,2.375 1.34375,5.15104 2.99479,6.17187c1.64583,1.01562 2.99479,-0.92708 2.99479,-4.31771c0,-3.39062 -1.34896,-6.17187 -2.99479,-6.17187c-1.65104,0 -2.99479,1.94271 -2.99479,4.31771M1082.10004,327.88752c0,1.64583 1.34896,3.82813 2.99479,4.84896c1.65104,1.01562 3,0.5 3,-1.14583c0,-1.64583 -1.34896,-3.82813 -3,-4.84896c-1.64583,-1.01563 -2.99479,-0.5 -2.99479,1.14583M596.78233,330.21044c0,3.11458 28.98437,89.11979 36.44271,108.125c3.91146,9.97396 8.49479,12.99479 8.49479,5.59896c0,-5.96354 -38.53125,-110.48438 -42.01563,-113.96875c-1.89583,-1.90104 -2.92187,-1.8125 -2.92187,0.24479M779.52712,352.20523c0,3.32813 2,5.99479 4.49479,5.99479c2.49479,0 4.49479,-2.66667 4.49479,-5.99479c0,-3.32813 -2,-5.98958 -4.49479,-5.98958c-2.49479,0 -4.49479,2.66146 -4.49479,5.98958M841.43858,348.21565c-4.125,4.11979 -1.77604,9.98437 3.99479,9.98437c3.99479,0 5.99479,-2 5.99479,-5.99479c0,-5.77083 -5.86458,-8.11458 -9.98958,-3.98958M900.36566,350.90836c-2.5,6.51042 3.83854,12.63021 8.38021,8.08854c3.83333,-3.83333 1.45833,-12.78125 -3.39583,-12.78125c-1.75,0 -3.99479,2.10937 -4.98437,4.69271M955.1417,350.85106c-2.34896,6.11458 0.11458,10.34375 6.01563,10.34375c2.94271,0 4.1875,-2.27604 3.56771,-6.50521c-1.1875,-8.06771 -7.05729,-10.41667 -9.58333,-3.83854M1004.75108,355.71565c1.41146,9.59375 8.44792,10.61979 8.44792,1.23437c0,-5.03125 -1.64583,-7.73958 -4.70313,-7.73958c-3.125,0 -4.38021,2.18229 -3.74479,6.50521M1046.15212,356.70002c0,4.11979 1.34896,7.48958 2.99479,7.48958c1.65104,0 2.99479,-3.36979 2.99479,-7.48958c0,-4.11979 -1.34375,-7.48958 -2.99479,-7.48958c-1.64583,0 -2.99479,3.36979 -2.99479,7.48958M1079.5792,361.19482c0,4.11979 0.68229,5.80729 1.51042,3.74479c0.83333,-2.05729 0.83333,-5.42708 0,-7.48958c-0.82813,-2.05729 -1.51042,-0.375 -1.51042,3.74479M751.63129,378.10627c-4.11979,4.11979 -1.98438,10.47396 3.18229,9.47917c2.88542,-0.55729 5.23958,-2.90104 5.23958,-5.20833c0,-4.73437 -5.28125,-7.40625 -8.42187,-4.27083M814.54274,378.10627c-4.41146,4.41146 -2.09375,13.49479 3.18229,12.47917c2.88542,-0.55729 5.23958,-3.57812 5.23958,-6.71354c0,-5.96354 -4.88542,-9.30208 -8.42188,-5.76562M875.36566,380.69482c-2.82292,3.40625 -3.00521,5.63021 -0.64583,7.98437c4.54167,4.54687 13.30729,0.5625 12.13021,-5.50521c-1.34896,-6.94271 -6.80208,-8.11979 -11.48437,-2.47917M935.73545,378.90315c-5.17187,3.19792 -3.20312,13.74479 2.56771,13.74479c5.00521,0 7.875,-9.80208 4,-13.67188c-1.40104,-1.40625 -4.35938,-1.4375 -6.56771,-0.07292M984.24587,383.86148c-2.16146,5.63542 3.14063,11.78125 7.71875,8.94792c4.9375,-3.05208 3.90625,-13.64063 -1.32813,-13.64063c-2.52604,0 -5.39583,2.11458 -6.39063,4.69271M1029.2615,383.66357c-2.09896,5.46354 0.64583,13.47917 4.60937,13.47917c3.71875,0 7.25,-11 4.80729,-14.95312c-2.73438,-4.42188 -7.4375,-3.6875 -9.41667,1.47396M1067.12087,389.65315c0,4.11979 1.34896,7.48958 2.99479,7.48958c1.65104,0 3,-3.36979 3,-7.48958c0,-4.11979 -1.34896,-7.48958 -3,-7.48958c-1.64583,0 -2.99479,3.36979 -2.99479,7.48958M1094.31879,389.90315c0.14583,3.48958 0.85417,4.19792 1.8125,1.8125c0.86458,-2.16146 0.75521,-4.75 -0.23958,-5.74479c-0.99479,-0.99479 -1.69792,0.77604 -1.57292,3.93229M725.8917,408.95003c-2.51042,1.54687 -3.34896,4.67708 -2.11458,7.89583c1.91146,4.97917 2.375,5 7.05208,0.32292c5.76563,-5.76562 1.79167,-12.38021 -4.9375,-8.21875M784.52191,411.12711c-4.125,4.11979 -1.78125,9.98438 3.99479,9.98438c3.98958,0 5.98958,-2 5.98958,-5.99479c0,-5.77083 -5.86458,-8.11458 -9.98438,-3.98958M846.43858,413.81982c-0.98958,2.58333 -0.18229,6.29167 1.79687,8.23958c2.77083,2.73437 4.55208,2.24479 7.78646,-2.14063c2.3125,-3.125 3.48958,-6.83333 2.61979,-8.23437c-2.60937,-4.22917 -10.27604,-2.88542 -12.20313,2.13542M906.49066,413.47607c-2.08854,5.4375 0.94271,10.63021 6.20312,10.63021c4.58333,0 7.36458,-5.73958 5.44792,-11.23438c-1.79167,-5.13021 -9.60937,-4.72396 -11.65104,0.60417M962.27191,413.6219c-2.98437,3.58854 -2.95833,5.42187 0.125,9.13542c3.39063,4.08854 4.38021,4.11979 8.26563,0.23437c4.44271,-4.44271 3.125,-13.86458 -1.9375,-13.86458c-1.5,0 -4.40104,2.02083 -6.45313,4.49479M1010.2042,419.61148c0,4.66146 1.69792,7.48958 4.48958,7.48958c2.79688,0 4.49479,-2.82812 4.49479,-7.48958c0,-4.66146 -1.69792,-7.48958 -4.49479,-7.48958c-2.79167,0 -4.48958,2.82813 -4.48958,7.48958M1050.23024,416.61669c-2.30208,6 1.09375,14.33854 4.89063,11.99479c3.96875,-2.45313 3.90625,-16.48958 -0.07292,-16.48958c-1.70313,0 -3.86979,2.02083 -4.81771,4.49479M1082.10004,422.78336c0,4.34896 1.29687,6.86979 2.99479,5.81771c1.65104,-1.02083 3,-4.46875 3,-7.66667c0,-3.20312 -1.34896,-5.81771 -3,-5.81771c-1.64583,0 -2.99479,3.45313 -2.99479,7.66667M493.59483,435.81461c-2.17708,3.53125 4.42187,18.54167 7.35937,16.72917c2.67187,-1.65104 0.14063,-15.98958 -3.18229,-18.04688c-1.33854,-0.82292 -3.21354,-0.23437 -4.17708,1.31771M700.1365,442.08023c-2.18229,3.53646 0.65104,8.98958 4.67187,8.98958c1.55208,0 2.81771,-2.69792 2.81771,-5.99479c0,-6.31771 -4.35937,-8.0625 -7.48958,-2.99479M756.56879,443.77815c-2.36458,6.15625 2.375,10.75521 7.69271,7.46875c4.52604,-2.80208 2.44271,-12.16146 -2.70833,-12.16146c-1.75521,0 -3.99479,2.10938 -4.98438,4.69271M817.25108,443.9344c-1.08333,2.82813 -0.66667,6.44271 0.92188,8.03125c4.32812,4.32812 12.875,-0.11458 11.71875,-6.09375c-1.34896,-7.01562 -10.17187,-8.36458 -12.64063,-1.9375M880.3865,441.08544c-1.09896,1.09375 -2,4.46354 -2,7.48958c0,6.26563 10.70313,7.72917 12.79167,1.74479c2.86979,-8.23438 -5.03125,-15 -10.79167,-9.23438M939.05316,441.20523c-2.05729,0.75521 -3.74479,4.72917 -3.74479,8.83333c0,5.47396 1.38542,7.19271 5.20833,6.45833c5.67187,-1.09375 8.875,-10.65625 4.80729,-14.35938c-1.39063,-1.26563 -4.20833,-1.6875 -6.27083,-0.93229M988.23545,444.08023c-1.09896,1.09375 -2,4.5625 -2,7.70833c0,8.16146 10.23438,5.48438 11.44271,-3c0.92187,-6.45833 -4.82813,-9.32813 -9.44271,-4.70833M1031.1417,448.13753c-4.16667,7.78646 -1.01563,13.51563 4.79167,8.69792c4.77604,-3.96354 5.75,-14.75521 1.33854,-14.75521c-1.58854,0 -4.34896,2.72396 -6.13021,6.05729M1066.12608,447.07503c-1.09896,1.09375 -2,4.57813 -2,7.73958c0,7.76562 7.23437,5 8.44792,-3.22917c0.92708,-6.30208 -2.36458,-8.59896 -6.44792,-4.51042M678.199,474.03857c1.45833,7.51563 8.45833,8.54687 8.45833,1.24479c0,-3.67708 -1.9375,-6.23958 -4.71354,-6.23958c-2.79167,0 -4.31771,2.03646 -3.74479,4.99479M731.59483,475.03336c0,3.32813 2,5.99479 4.49479,5.99479c2.49479,0 4.48958,-2.66667 4.48958,-5.99479c0,-3.32813 -1.99479,-5.98958 -4.48958,-5.98958c-2.49479,0 -4.49479,2.66146 -4.49479,5.98958M789.52191,473.73649c-0.99479,2.58333 -0.33333,6.16667 1.46354,7.96354c4.32813,4.32813 12.79688,-2.43229 10.51042,-8.38021c-2.19271,-5.71354 -9.72396,-5.44792 -11.97396,0.41667M851.40212,473.56461c-2.82812,3.40625 -3.01042,5.63021 -0.65104,7.98437c4.54688,4.54687 13.30729,0.5625 12.13021,-5.51042c-1.34375,-6.9375 -6.80208,-8.11458 -11.47917,-2.47396M912.08962,471.19482c-3.84896,1.38021 -5.14583,10.42708 -1.95313,13.61979c3.30729,3.30729 10.19271,-1.375 10.19271,-6.92708c0,-6.30729 -2.85417,-8.625 -8.23958,-6.69271M960.99587,477.03336c-1.05729,2.74479 -0.51563,6.39583 1.19792,8.10937c3.93229,3.93229 13.71354,-5.01042 10.73958,-9.82292c-3.04167,-4.91667 -9.76563,-3.95313 -11.9375,1.71354M1007.30316,477.84586c-2.1875,4.08854 -2.13542,6.41667 0.18229,7.84896c4.28125,2.64062 13.02604,-6.09375 10.38542,-10.375c-3.05208,-4.93229 -7.08854,-3.96875 -10.56771,2.52604M1046.42816,477.51253c-4.04167,7.55729 -4.19271,12.5 -0.38021,12.5c4.83333,0 10.04167,-12.22917 6.65104,-15.61979c-2,-2 -4.08854,-0.95833 -6.27083,3.11979M510.02712,477.02815c-0.18229,5.20313 29.98438,91.91667 33.125,95.21875c4.97917,5.23958 2.88542,-3.08333 -10.91667,-43.36458c-13.20833,-38.57292 -21.96354,-59.00521 -22.20833,-51.85417M1076.45941,477.03336c-0.19271,1.92708 -1.21875,5.97396 -2.28646,8.98958c-1.50521,4.25521 -1.10417,4.72396 1.77604,2.0625c2.04687,-1.88542 3.07812,-5.93229 2.28646,-8.98958c-0.78646,-3.05729 -1.58854,-3.98437 -1.77604,-2.0625M661.77712,500.91357c-2.39583,2.39583 0.30729,7.07292 4.08854,7.07292c1.55208,0 2.81771,-2.02083 2.81771,-4.48958c0,-4.63542 -3.53646,-5.95313 -6.90625,-2.58333M710.62608,504.99169c0,3.32813 1.99479,5.98958 4.48958,5.98958c2.49479,0 4.49479,-2.66146 4.49479,-5.98958c0,-3.32813 -2,-5.98958 -4.49479,-5.98958c-2.49479,0 -4.48958,2.66146 -4.48958,5.98958M764.54795,504.99169c0,4.51042 1.5625,6.13021 5.24479,5.42187c2.88542,-0.55729 5.23958,-2.99479 5.23958,-5.42187c0,-2.42708 -2.35417,-4.86458 -5.23958,-5.42187c-3.68229,-0.70833 -5.24479,0.91146 -5.24479,5.42187M822.47504,503.69482c-0.98958,2.58333 -0.26563,6.22917 1.60937,8.10937c4.21875,4.21875 14.20833,-4.39583 11.04167,-9.52083c-2.98958,-4.83854 -10.57812,-3.98958 -12.65104,1.41146M881.27712,503.6219c-2.76562,3.33333 -2.92708,5.52604 -0.56771,7.88542c4.72396,4.72396 12.65625,0.69792 12.65625,-6.42188c0,-7.19792 -6.66146,-8 -12.08854,-1.46354M935.90733,502.59586c-5.41146,5.41146 -4.32292,11.38542 2.07812,11.38542c5.89063,0 10.57292,-7.51042 7.64063,-12.25521c-2.29167,-3.70312 -5.42708,-3.42187 -9.71875,0.86979M983.27191,503.45524c-2.03125,2.45313 -2.85417,6.64583 -1.82813,9.32813c1.51042,3.94271 2.71354,4.16667 6.32813,1.16667c4.80208,-3.98958 6.14583,-14.94792 1.82813,-14.94792c-1.44792,0 -4.29687,2.00521 -6.32813,4.45313M1022.04795,508.2469c-1.83854,3.43229 -2.59375,6.99479 -1.67708,7.91146c2.47917,2.47917 10.80208,-5.26042 10.80208,-10.03125c0,-6.20833 -5.33333,-4.96875 -9.125,2.11979M1055.85004,505.48128c-4.5,4.5 -4.875,11.49479 -0.61979,11.49479c3.61979,0 6.9375,-7.375 5.39583,-12c-0.71354,-2.14063 -2.29687,-1.97396 -4.77604,0.50521M649.50108,528.4917c-1.03646,1.67708 -0.42708,3.95313 1.35417,5.05208c4.60938,2.84896 7.58333,-1.05208 3.73438,-4.89583c-2.15104,-2.15104 -3.82292,-2.20313 -5.08854,-0.15625M693.11045,530.61149c0.57292,2.9375 2.84896,5.94271 5.06771,6.68229c2.57813,0.85938 3.65625,-0.58333 2.99479,-4c-0.56771,-2.93229 -2.84896,-5.94271 -5.06771,-6.67708c-2.57292,-0.85937 -3.65625,0.57813 -2.99479,3.99479M743.5792,531.95524c0,3.32813 1.99479,5.98958 4.48958,5.98958c2.5,0 4.49479,-2.66146 4.49479,-5.98958c0,-3.32813 -1.99479,-5.99479 -4.49479,-5.99479c-2.49479,0 -4.48958,2.66667 -4.48958,5.99479M797.98024,529.88232c-4.07292,4.90625 -1.63542,8.0625 6.23438,8.0625c3.71875,0 5.36979,-1.73958 4.73958,-4.99479c-1.28646,-6.64583 -6.73958,-8.17187 -10.97396,-3.06771M854.39691,530.48128c-2.82813,3.41146 -3.00521,5.63021 -0.65104,7.98958c4.54687,4.54167 13.30729,0.5625 12.13021,-5.51042c-1.34375,-6.9375 -6.79687,-8.11458 -11.47917,-2.47917M908.94379,529.5594c-4.85417,4.85417 -4.55208,11.38021 0.53646,11.38021c5.52604,0 11.84896,-7.9375 9.43229,-11.84896c-2.53125,-4.09375 -5.54687,-3.95313 -9.96875,0.46875M954.42295,533.3094c-0.91667,2.39063 -0.75521,5.82813 0.35937,7.63542c2.55729,4.14062 10.48437,-1.79687 10.48437,-7.85938c0,-5.48958 -8.72396,-5.30729 -10.84375,0.22396M996.34483,533.35107c-3.09896,8.07813 0.27604,11.75521 5.75521,6.28125c2.80729,-2.8125 5.10417,-6.36458 5.10417,-7.89063c0,-4.51563 -9.02083,-3.17708 -10.85937,1.60937M1031.324,534.66878c-3.90104,7.28646 -3.95313,9.27083 -0.25521,9.27083c4.36979,0 9.64583,-11.29167 6.25521,-13.38542c-1.57292,-0.96875 -4.27083,0.88021 -6,4.11458M1055.85004,535.43961c-2.03646,2.03646 -3.70833,5.74479 -3.70833,8.23958c0,3.92708 0.65625,3.88542 4.84375,-0.30208c2.66146,-2.66146 4.33333,-6.375 3.70833,-8.24479c-0.82292,-2.45833 -2.16667,-2.36979 -4.84375,0.30729M641.71983,555.91878c0,1.65104 1.43229,3 3.17187,3c1.74479,0 2.34375,-1.34896 1.32292,-3c-1.02083,-1.64583 -2.44271,-2.99479 -3.17188,-2.99479c-0.72917,0 -1.32292,1.34896 -1.32292,2.99479M680.66774,557.16878c0,2.60938 2.13542,4.74479 4.73958,4.74479c2.60937,0 4.21354,-1.59896 3.5625,-3.55729c-1.85417,-5.55729 -8.30208,-6.47917 -8.30208,-1.1875M726.13129,557.57503c1.35417,6.51042 6.67187,6.90625 7.89062,0.59375c0.63021,-3.28125 -0.83854,-5.24479 -3.92708,-5.24479c-2.875,0 -4.52604,1.9375 -3.96354,4.65104M775.03233,555.91878c-2.50521,4.05729 0.875,8.98958 6.17187,8.98958c2.375,0 4.3125,-2.69792 4.3125,-5.98958c0,-6.20312 -7.22917,-8.27083 -10.48437,-3M827.85004,556.94482c-3.95313,4.77083 -1.51042,7.96354 6.09896,7.96354c3.49479,0 5.49479,-2.17708 5.49479,-5.98958c0,-6.83333 -6.61979,-7.95833 -11.59375,-1.97396M879.39691,557.6167c-0.99479,2.58333 -0.1875,6.29167 1.79167,8.23958c2.77083,2.73437 4.55208,2.24479 7.79167,-2.13542c2.30729,-3.13021 3.48438,-6.83333 2.61458,-8.23958c-2.60938,-4.22917 -10.27604,-2.88542 -12.19792,2.13542M929.91774,556.51774c-5.36979,5.36979 -4.36458,11.96875 1.64583,10.82813c2.88542,-0.55208 5.67187,-4.02083 6.20313,-7.70833c1.04687,-7.38021 -2.27083,-8.69792 -7.84896,-3.11979M971.85524,556.51774c-4.18229,4.18229 -4.79167,11.38542 -0.96354,11.38542c1.44271,0 4.35417,-2.07813 6.46354,-4.61979c4.86458,-5.85937 -0.1875,-12.07292 -5.5,-6.76563M1004.20941,561.91357c-2.55729,4.78125 -2.27604,5.98958 1.39583,5.98958c2.52604,0 4.59896,-0.5625 4.59896,-1.25c0,-0.69271 0.81771,-3.38542 1.81771,-5.99479c2.64063,-6.88542 -4.02604,-5.81771 -7.8125,1.25521M1031.03754,562.16878c-1.84375,3.4375 -2.45313,7.14063 -1.35937,8.23438c2.03125,2.03125 10.48437,-7.6875 10.48437,-12.05729c0,-4.76042 -5.83854,-2.3125 -9.125,3.82292M672.24066,580.07503c0.71875,2.16146 3.08333,4.52083 5.24479,5.24479c2.24479,0.74479 3.36979,-0.375 2.61979,-2.625c-0.72396,-2.16146 -3.08333,-4.52083 -5.23958,-5.23958c-2.25,-0.75 -3.375,0.375 -2.625,2.61979M712.3292,579.54899c-1.94271,3.14063 5.53125,10.07292 8.09896,7.51042c2.3125,-2.31771 -0.73958,-10.16667 -3.95833,-10.16667c-1.375,0 -3.23438,1.19271 -4.14063,2.65625M756.89691,580.14795c-3.08333,4.99479 3.85417,10.72396 7.98958,6.58854c3.45833,-3.45313 1.29167,-9.84375 -3.33333,-9.84375c-1.45313,0 -3.54687,1.46354 -4.65625,3.25521M805.08962,579.72607c-2.63542,4.26563 0.72396,9.14583 6.28646,9.14583c2.625,0 4.13021,-2.10417 3.56771,-4.98958c-1.16146,-6.02083 -7.14583,-8.53646 -9.85417,-4.15625M854.449,581.35107c-3,3.61979 -2.75,4.82292 1.33333,6.38542c5.90625,2.26562 12.19792,-2.875 9.28646,-7.58854c-2.76562,-4.47396 -6.23437,-4.08333 -10.61979,1.20312M903.10524,578.87191c-4.07813,1.64583 -5.25521,13 -1.34896,13c3.72917,0 9.58333,-6.77083 9.58333,-11.08854c0,-4.04167 -1.875,-4.47917 -8.23438,-1.91146M942.33441,584.50732c-0.97917,2.54687 -0.96354,5.43229 0.02083,6.42187c2.13542,2.13542 10.92708,-4.63542 10.92708,-8.41146c0,-4.52604 -9.08333,-2.86979 -10.94792,1.98958M977.25108,585.87711c-1.76563,3.29688 -2.08333,5.99479 -0.70833,5.99479c3.1875,0 9.69271,-6.4375 9.69271,-9.58854c0,-4.65104 -5.81771,-2.32292 -8.98437,3.59375M1005.72504,585.86149c-2.98958,3.30208 -4.04687,6.01042 -2.34375,6.01042c3.77083,0 11.23958,-8.5625 9.22917,-10.57813c-0.79687,-0.79167 -3.89583,1.26042 -6.88542,4.56771M704.63129,603.67399c0,1.55208 1.34896,3.65625 2.99479,4.67187c1.65104,1.02083 3,-0.25 3,-2.81771c0,-2.56771 -1.34896,-4.67187 -3,-4.67187c-1.64583,0 -2.99479,1.26562 -2.99479,2.81771M744.2615,604.41878c1.85417,5.55208 8.30208,6.46875 8.30208,1.18229c0,-2.60937 -2.13542,-4.74479 -4.73958,-4.74479c-2.60937,0 -4.21354,1.59896 -3.5625,3.5625M785.5167,605.35107c0,3.08333 1.96354,4.55208 5.24479,3.92188c6.3125,-1.21354 5.91667,-6.53125 -0.58854,-7.88542c-2.71875,-0.56771 -4.65625,1.08333 -4.65625,3.96354M830.4542,605.35107c0,2.49479 2.66667,4.49479 5.99479,4.49479c3.32812,0 5.98958,-2 5.98958,-4.49479c0,-2.49479 -2.66146,-4.49479 -5.98958,-4.49479c-3.32813,0 -5.99479,2 -5.99479,4.49479M874.42295,605.05941c-3.44271,8.96354 5.28125,10.53125 9.95833,1.79167c2.6875,-5.03125 2.27604,-5.99479 -2.57292,-5.99479c-3.17708,0 -6.5,1.89062 -7.38542,4.20312M915.37087,605.48128c-0.97917,2.54167 -1.02083,5.375 -0.10417,6.29167c2.625,2.61979 8.05729,-1.82813 8.05729,-6.59896c0,-5.75 -5.71354,-5.52604 -7.95313,0.30729M950.22504,605.42399c-2.08333,2.51042 -2.95313,5.40104 -1.9375,6.41667c2.17708,2.17708 10.98437,-4.52604 10.98437,-8.35417c0,-4.125 -4.88021,-3.08333 -9.04687,1.9375M980.45941,605.09586c-2.23437,2.69271 -3.17708,5.78125 -2.08854,6.86458c2.79687,2.80208 8.78125,-3.86458 7.34375,-8.17187c-0.82813,-2.48437 -2.44792,-2.07813 -5.25521,1.30729M999.60004,609.97607c-4.55208,5.02604 -4.67187,5.78646 -0.69271,4.26042c2.66146,-1.02083 5.57812,-3.77604 6.47396,-6.11979c2.23958,-5.83333 0.74479,-5.35417 -5.78125,1.85937M736.37608,621.36149c-1.03646,1.67708 -0.42187,3.94792 1.35937,5.05208c4.60938,2.84896 7.57813,-1.05208 3.73438,-4.89583c-2.15104,-2.15104 -3.82813,-2.20312 -5.09375,-0.15625M703.1365,624.82503c1.01562,1.64583 3.19792,2.99479 4.84375,2.99479c1.65104,0 2.16667,-1.34896 1.14583,-2.99479c-1.02083,-1.65104 -3.19792,-2.99479 -4.84896,-2.99479c-1.64583,0 -2.16146,1.34375 -1.14062,2.99479M773.98545,624.67399c0.65625,1.97917 2.17188,3.49479 3.36979,3.36979c3.58333,-0.36979 2.88542,-4.47917 -0.97396,-5.76562c-1.97917,-0.66146 -3.05729,0.41667 -2.39583,2.39583M812.48024,626.56982c0,5.29167 6.44792,4.36979 8.30208,-1.18229c0.65104,-1.95833 -0.94792,-3.55729 -3.55729,-3.55729c-2.60937,0 -4.74479,2.13542 -4.74479,4.73958M852.80316,625.02295c-1.08854,1.75521 -1.22917,3.94792 -0.30729,4.86458c2.46354,2.46354 10.91146,-1.38021 10.91146,-4.96875c0,-4.06771 -8.07813,-3.98437 -10.60417,0.10417M888.75108,625.02295c-1.08854,1.75521 -1.22396,3.94792 -0.30729,4.86458c2.46354,2.46354 10.91667,-1.38021 10.91667,-4.96875c0,-4.06771 -8.08333,-3.98437 -10.60937,0.10417M924.699,625.02295c-1.08854,1.75521 -1.25521,3.91146 -0.375,4.79687c2.14583,2.14062 7.98958,-1.64063 7.98958,-5.17187c0,-3.82813 -5.17187,-3.57292 -7.61458,0.375M950.8865,625.42399c-5.65625,5.65625 -4.20313,8.92187 2.39583,5.39063c3.29687,-1.76563 5.98958,-4.51042 5.98958,-6.09375c0,-3.97396 -4.05208,-3.63021 -8.38542,0.70313M970.87608,629.80941c-3.72917,4.51563 -3.48437,4.65104 2.63021,1.39063c6.96875,-3.71354 8.6875,-6.375 4.10937,-6.375c-1.44271,0 -4.47917,2.24479 -6.73958,4.98437M734.58962,642.79899c0,1.64583 1.42708,2.99479 3.17187,2.99479c1.74479,0 2.33854,-1.34896 1.32292,-2.99479c-1.02083,-1.64583 -2.44271,-2.99479 -3.17187,-2.99479c-0.72917,0 -1.32292,1.34896 -1.32292,2.99479M764.54795,642.79899c0,1.64583 2.10417,2.99479 4.67187,2.99479c2.56771,0 3.83854,-1.34896 2.81771,-2.99479c-1.02083,-1.64583 -3.11979,-2.99479 -4.67187,-2.99479c-1.55208,0 -2.81771,1.34896 -2.81771,2.99479M798.0792,643.02295c0.58854,1.77083 2.35417,3.21875 3.91667,3.21875c1.5625,0 3.32813,-1.44792 3.91667,-3.21875c0.59375,-1.77083 -1.17187,-3.21875 -3.91667,-3.21875c-2.75,0 -4.51042,1.44792 -3.91667,3.21875M833.449,644.54378c0,5.29167 6.45312,4.36979 8.30208,-1.18229c0.65625,-1.95833 -0.94792,-3.55729 -3.55729,-3.55729c-2.60417,0 -4.74479,2.13542 -4.74479,4.73958M867.78233,642.99691c-1.08854,1.75521 -1.25521,3.91667 -0.38021,4.79687c2.14583,2.14583 7.98958,-1.63542 7.98958,-5.17187c0,-3.82813 -5.17187,-3.57292 -7.60937,0.375M897.73545,642.99691c-1.08333,1.75521 -1.25521,3.91667 -0.375,4.79687c2.14583,2.14583 7.98958,-1.63542 7.98958,-5.17187c0,-3.82813 -5.17187,-3.57292 -7.61458,0.375M923.324,644.29378c-2.07813,2.51042 -2.40625,4.49479 -0.73437,4.49479c1.65104,0 4.67708,-2.02083 6.72917,-4.49479c2.07813,-2.50521 2.40104,-4.48958 0.72917,-4.48958c-1.64583,0 -4.67188,2.02083 -6.72396,4.48958M763.04795,657.77816c1.02083,1.64583 2.44792,2.99479 3.17708,2.99479c0.72396,0 1.31771,-1.34896 1.31771,-2.99479c0,-1.65104 -1.42708,-2.99479 -3.17187,-2.99479c-1.74479,0 -2.33854,1.34375 -1.32292,2.99479M821.46983,657.77816c0,1.64583 1.42708,2.99479 3.17187,2.99479c1.74479,0 2.33854,-1.34896 1.31771,-2.99479c-1.01563,-1.65104 -2.44271,-2.99479 -3.17187,-2.99479c-0.72396,0 -1.31771,1.34375 -1.31771,2.99479M849.92816,657.77816c-1.02083,1.64583 0.25,2.99479 2.81771,2.99479c2.56771,0 4.67187,-1.34896 4.67187,-2.99479c0,-1.65104 -1.26563,-2.99479 -2.81771,-2.99479c-1.55208,0 -3.65104,1.34375 -4.67187,2.99479M877.3917,656.77816c-1.09896,1.09896 -2,3.39062 -2,5.09375c0,1.875 1.39583,1.69792 3.54687,-0.44792c1.94792,-1.95313 2.84896,-4.24479 1.99479,-5.09375c-0.84896,-0.84896 -2.44792,-0.65104 -3.54167,0.44792M897.86045,660.77295c-1.02083,1.64583 -0.50521,2.99479 1.14583,2.99479c1.64583,0 3.82812,-1.34896 4.84375,-2.99479c1.02083,-1.64583 0.50521,-2.99479 -1.14063,-2.99479c-1.65104,0 -3.82812,1.34896 -4.84896,2.99479" id="CompoundPath 1"/></g></g></g></g></g></g></svg>