<svg xmlns="http://www.w3.org/2000/svg" xmlns:xlink="http://www.w3.org/1999/xlink" width="819" zoomAndPan="magnify" viewBox="0 0 614.25 533.249983" height="711" preserveAspectRatio="xMidYMid meet" version="1.2"><g id="b350775ae5"><path style=" stroke:none;fill-rule:evenodd;fill:#000000;fill-opacity:1;" d="M 335.0625 56.308594 C 291.496094 80.058594 258.539062 107.519531 228.25 145.332031 C 210.597656 167.363281 193.488281 196.429688 196.4375 199.375 C 197.175781 200.113281 197.777344 199.726562 197.777344 198.515625 C 197.777344 194.28125 216.605469 165.003906 229.582031 149.058594 C 236.78125 140.210938 249.503906 126.214844 257.859375 117.960938 C 286.261719 89.878906 341.585938 51.722656 349.488281 54.753906 C 352.109375 55.761719 352.8125 60.710938 352.8125 78.160156 L 352.8125 100.289062 L 340.371094 104.207031 C 299.652344 117.042969 258.894531 142.835938 223.898438 177.910156 C 210.460938 191.382812 199.929688 202.867188 200.496094 203.4375 C 201.0625 204 210.542969 195.597656 221.558594 184.753906 C 262.085938 144.878906 298.65625 122.199219 348.613281 105.96875 C 374.867188 97.4375 409.644531 89.894531 422.792969 89.878906 C 428.339844 89.875 428.910156 90.832031 431.21875 104.101562 C 434.972656 125.65625 435.078125 125.359375 423.023438 127.011719 C 366.632812 134.742188 290.414062 161.453125 250.476562 187.484375 C 233.472656 198.570312 200.027344 229.34375 200.027344 233.90625 C 200.027344 235.011719 196.546875 235.917969 192.292969 235.917969 C 185.539062 235.917969 183.292969 234.28125 174.542969 223 C 169.03125 215.894531 161.136719 206.921875 157 203.0625 C 141.90625 188.992188 106.070312 170.585938 86.617188 166.914062 C 76.425781 164.996094 74.203125 162.203125 74.203125 151.316406 C 74.203125 138.519531 77.050781 137.476562 99.394531 142.09375 C 132.710938 148.984375 157.78125 166.601562 177.765625 197.164062 C 183.625 206.125 188.945312 214.71875 189.585938 216.261719 C 190.417969 218.253906 191.761719 217.820312 194.230469 214.757812 C 196.816406 211.550781 197.070312 209.683594 195.21875 207.457031 C 193.855469 205.808594 193.558594 204.460938 194.5625 204.460938 C 195.566406 204.460938 194.847656 203.199219 192.960938 201.652344 C 191.070312 200.109375 188.253906 194.296875 186.695312 188.734375 C 176.695312 153.027344 138.792969 115.976562 106.980469 110.816406 L 99.160156 109.546875 L 98.476562 122.515625 L 97.792969 135.488281 L 70.832031 135.933594 L 71.5625 149.976562 C 72.277344 163.675781 72.15625 164.019531 66.640625 164.019531 C 63.53125 164.019531 60.484375 164.832031 59.871094 165.820312 C 59.261719 166.8125 70.9375 198.40625 85.820312 236.035156 C 124.132812 332.878906 133.519531 357.867188 147.523438 400.257812 L 159.875 437.652344 L 172.648438 439.089844 C 192.828125 441.363281 206.769531 444.972656 222.289062 451.933594 C 230.207031 455.488281 237.058594 458.019531 237.515625 457.5625 C 237.976562 457.109375 237.175781 453.808594 235.742188 450.242188 C 234.3125 446.671875 232.976562 434.144531 232.773438 422.40625 C 232.417969 401.683594 231.894531 399.6875 214.855469 353.878906 C 195.230469 301.109375 183.761719 267.160156 185.109375 265.8125 C 186.46875 264.453125 199.617188 297.058594 218.128906 347.699219 C 227.277344 372.722656 235.289062 393.183594 235.929688 393.171875 C 236.574219 393.15625 239.9375 386.125 243.414062 377.546875 C 248.246094 365.605469 249.183594 360.9375 247.421875 357.648438 C 244.523438 352.230469 247 349.359375 250.472656 354.109375 C 252.664062 357.109375 254.355469 355.664062 261.699219 344.523438 C 277.472656 320.59375 304.371094 289.578125 351.921875 240.480469 C 368.113281 223.761719 388.890625 201.484375 398.09375 190.980469 C 438.464844 144.894531 441.878906 136.609375 435.140625 101.109375 L 432.371094 86.503906 L 423.125 85.824219 C 418.042969 85.449219 402.421875 87.722656 388.417969 90.878906 C 374.410156 94.03125 361.792969 96.613281 360.375 96.613281 C 358.6875 96.613281 357.238281 88.058594 356.179688 71.898438 C 355.292969 58.304688 353.917969 47.195312 353.128906 47.214844 C 352.335938 47.234375 344.207031 51.324219 335.0625 56.308594 M 101.199219 123.855469 C 101.21875 129.261719 101.976562 134.699219 102.882812 135.933594 C 103.792969 137.167969 110.097656 140.0625 116.890625 142.363281 C 140.996094 150.523438 160.910156 166.484375 180.464844 193.3125 L 184.496094 198.84375 L 183.089844 192.105469 C 176.648438 161.230469 137.785156 121.351562 108.414062 115.476562 L 101.164062 114.027344 Z M 350.5625 116.835938 L 344.945312 118.636719 L 350.5625 118.699219 C 353.652344 118.738281 358.203125 117.898438 360.675781 116.835938 L 365.167969 114.90625 L 360.675781 114.972656 C 358.203125 115.007812 353.652344 115.847656 350.5625 116.835938 M 379.230469 123.378906 C 370.898438 125.527344 363.316406 128.089844 362.378906 129.078125 C 361.441406 130.066406 363.203125 130.070312 366.292969 129.089844 C 369.382812 128.105469 379.996094 125.554688 389.882812 123.421875 C 399.769531 121.285156 404.824219 119.523438 401.117188 119.507812 C 397.410156 119.492188 387.558594 121.234375 379.230469 123.378906 M 316.859375 128.070312 C 315.007812 129.265625 314.503906 130.246094 315.738281 130.246094 C 316.972656 130.246094 319.5 129.265625 321.355469 128.070312 C 323.207031 126.871094 323.714844 125.894531 322.476562 125.894531 C 321.242188 125.894531 318.714844 126.871094 316.859375 128.070312 M 305.628906 132.5625 C 303.773438 133.761719 303.269531 134.742188 304.503906 134.742188 C 305.738281 134.742188 308.265625 133.761719 310.121094 132.5625 C 311.972656 131.367188 312.480469 130.386719 311.246094 130.386719 C 310.007812 130.386719 307.480469 131.367188 305.628906 132.5625 M 296.640625 137.058594 C 294.617188 138.363281 294.335938 139.246094 295.945312 139.269531 C 297.417969 139.289062 299.246094 138.292969 300.011719 137.058594 C 301.734375 134.265625 300.957031 134.265625 296.640625 137.058594 M 468.523438 148.292969 C 469.285156 149.527344 470.355469 150.539062 470.902344 150.539062 C 471.449219 150.539062 471.894531 149.527344 471.894531 148.292969 C 471.894531 147.054688 470.820312 146.042969 469.515625 146.042969 C 468.207031 146.042969 467.757812 147.054688 468.523438 148.292969 M 297.203125 150.609375 C 289.675781 153.632812 291.082031 155.167969 298.886719 152.449219 C 302.59375 151.15625 305.628906 149.691406 305.628906 149.195312 C 305.628906 147.863281 302.894531 148.320312 297.203125 150.609375 M 543.640625 166.671875 C 547.433594 172.453125 550.53125 178.191406 550.53125 179.417969 C 550.53125 180.644531 552.921875 184.507812 555.84375 188 C 562.308594 195.734375 569.5625 209.957031 571.691406 219.066406 C 572.554688 222.773438 575.148438 229.851562 577.453125 234.792969 C 588.59375 258.703125 591.007812 322.070312 581.28125 335.246094 C 577.628906 340.191406 577.308594 341.960938 579.578125 344.691406 C 581.8125 347.386719 581.65625 350.503906 578.777344 360.398438 C 576.804688 367.191406 574.257812 373.320312 573.117188 374.027344 C 571.980469 374.730469 569.488281 380.671875 567.582031 387.234375 C 563.316406 401.902344 543.191406 432.984375 535.765625 436.371094 C 532.765625 437.734375 530.183594 439.703125 530.03125 440.742188 C 529.851562 441.933594 529.65625 443.125 529.453125 444.3125 C 528.394531 450.3125 505.367188 470.320312 485.375 482.613281 C 464.40625 495.503906 430.3125 508.375 408.78125 511.535156 C 393.59375 513.765625 362.375 513.910156 346.070312 511.824219 L 333.710938 510.242188 L 346.070312 513.570312 C 362.574219 518.015625 415.398438 516.644531 435.945312 511.238281 C 458.414062 505.324219 494.21875 487.023438 513.191406 471.765625 C 554.101562 438.851562 582.832031 389.765625 591.03125 338.761719 C 594.539062 316.941406 592.753906 269.015625 587.746094 250.523438 C 578.832031 217.609375 561.667969 183.332031 544.988281 165.144531 L 536.75 156.15625 Z M 433.695312 162.761719 C 433.695312 164.6875 434.707031 166.265625 435.945312 166.265625 C 437.179688 166.265625 438.191406 165.316406 438.191406 164.152344 C 438.191406 162.988281 437.179688 161.414062 435.945312 160.648438 C 434.707031 159.886719 433.695312 160.835938 433.695312 162.761719 M 464.246094 161.421875 C 463.46875 162.679688 463.929688 164.386719 465.265625 165.210938 C 468.71875 167.347656 470.949219 164.421875 468.066406 161.539062 C 466.453125 159.925781 465.195312 159.886719 464.246094 161.421875 M 492.113281 163.886719 C 492.113281 165.050781 493.125 166.625 494.363281 167.390625 C 495.597656 168.152344 496.609375 167.199219 496.609375 165.273438 C 496.609375 163.351562 495.597656 161.773438 494.363281 161.773438 C 493.125 161.773438 492.113281 162.722656 492.113281 163.886719 M 514.582031 163.753906 C 514.582031 164.988281 515.59375 166.625 516.828125 167.390625 C 518.066406 168.152344 519.078125 167.765625 519.078125 166.53125 C 519.078125 165.296875 518.066406 163.660156 516.828125 162.894531 C 515.59375 162.132812 514.582031 162.519531 514.582031 163.753906 M 421.773438 178.9375 C 419.980469 180.730469 422.007812 184.242188 424.84375 184.242188 C 426.007812 184.242188 426.957031 182.722656 426.957031 180.871094 C 426.957031 177.398438 424.304688 176.40625 421.773438 178.9375 M 457.507812 179.398438 C 456.730469 180.65625 457.1875 182.359375 458.523438 183.1875 C 461.980469 185.320312 464.210938 182.398438 461.324219 179.511719 C 459.710938 177.898438 458.453125 177.863281 457.507812 179.398438 M 487.96875 180.988281 C 488.394531 183.1875 490.105469 185.445312 491.769531 185.996094 C 493.699219 186.644531 494.511719 185.5625 494.015625 183 C 493.585938 180.796875 491.878906 178.542969 490.214844 177.988281 C 488.28125 177.34375 487.472656 178.425781 487.96875 180.988281 M 515.945312 182.929688 C 516.699219 184.886719 518.296875 186.488281 519.503906 186.488281 C 522.457031 186.488281 520.609375 181.378906 517.25 180.261719 C 515.609375 179.714844 515.105469 180.742188 515.945312 182.929688 M 537.050781 181.730469 C 537.050781 182.964844 538.0625 184.601562 539.296875 185.363281 C 540.535156 186.128906 541.546875 185.742188 541.546875 184.507812 C 541.546875 183.269531 540.535156 181.632812 539.296875 180.871094 C 538.0625 180.105469 537.050781 180.492188 537.050781 181.730469 M 405.988281 196.972656 C 403.402344 199.558594 404.347656 202.214844 407.859375 202.214844 C 409.710938 202.214844 411.230469 200.699219 411.230469 198.84375 C 411.230469 195.335938 408.570312 194.386719 405.988281 196.972656 M 445.851562 198.566406 C 443.945312 203.527344 446.480469 206.058594 449.914062 202.625 C 451.9375 200.601562 451.945312 199.34375 449.949219 197.347656 C 447.949219 195.347656 446.972656 195.636719 445.851562 198.566406 M 480.878906 199.695312 C 480.878906 202.4375 482.3125 204.460938 484.25 204.460938 C 486.105469 204.460938 487.621094 203.574219 487.621094 202.488281 C 487.621094 201.40625 486.105469 199.261719 484.25 197.722656 C 481.433594 195.386719 480.878906 195.707031 480.878906 199.695312 M 510.089844 199.695312 C 510.089844 200.777344 511.605469 202.921875 513.460938 204.460938 C 516.273438 206.800781 516.828125 206.476562 516.828125 202.488281 C 516.828125 199.75 515.398438 197.722656 513.460938 197.722656 C 511.605469 197.722656 510.089844 198.609375 510.089844 199.695312 M 537.050781 202.082031 C 537.050781 203.246094 538.0625 204.820312 539.296875 205.585938 C 540.535156 206.351562 541.546875 205.398438 541.546875 203.472656 C 541.546875 201.546875 540.535156 199.96875 539.296875 199.96875 C 538.0625 199.96875 537.050781 200.917969 537.050781 202.082031 M 387.542969 218.09375 C 385.476562 221.441406 387.875 223.257812 392.175781 221.609375 C 394.160156 220.847656 395.15625 219.203125 394.386719 217.960938 C 392.566406 215.011719 389.410156 215.074219 387.542969 218.09375 M 430.328125 217.945312 C 428.6875 220.59375 430.8125 224.683594 433.828125 224.683594 C 434.992188 224.683594 435.945312 222.660156 435.945312 220.191406 C 435.945312 215.453125 432.675781 214.144531 430.328125 217.945312 M 468.597656 217.824219 C 466.621094 221.023438 469.140625 224.683594 473.3125 224.683594 C 475.28125 224.683594 476.410156 223.105469 475.988281 220.9375 C 475.113281 216.425781 470.628906 214.539062 468.597656 217.824219 M 503.746094 221.6875 C 504.839844 227.328125 510.089844 228.097656 510.089844 222.625 C 510.089844 219.863281 508.636719 217.945312 506.554688 217.945312 C 504.460938 217.945312 503.316406 219.472656 503.746094 221.6875 M 532.589844 219.628906 C 532.613281 220.554688 533.566406 222.800781 534.71875 224.617188 C 537.304688 228.710938 540.34375 226.152344 538.523438 221.410156 C 537.179688 217.910156 532.527344 216.511719 532.589844 219.628906 M 557.273438 222.4375 C 557.273438 223.671875 558.34375 224.683594 559.652344 224.683594 C 560.960938 224.683594 561.40625 223.671875 560.644531 222.4375 C 559.878906 221.203125 558.808594 220.191406 558.265625 220.191406 C 557.71875 220.191406 557.273438 221.203125 557.273438 222.4375 M 367.835938 237.371094 C 364.75 240.457031 366.351562 245.222656 370.222656 244.480469 C 372.386719 244.0625 374.15625 242.300781 374.15625 240.570312 C 374.15625 237.019531 370.191406 235.015625 367.835938 237.371094 M 412.773438 237.371094 C 409.59375 240.550781 411.394531 244.90625 415.886719 244.90625 C 419.027344 244.90625 420.308594 243.683594 419.816406 241.160156 C 419.015625 237.023438 415.179688 234.960938 412.773438 237.371094 M 454.308594 241.890625 C 454.746094 244.167969 456.605469 246.027344 458.445312 246.027344 C 463.257812 246.027344 462.5625 239.5 457.644531 238.554688 C 454.644531 237.976562 453.730469 238.890625 454.308594 241.890625 M 492.113281 241.402344 C 492.113281 245.320312 495.800781 247.917969 498.757812 246.089844 C 501.746094 244.242188 499.054688 238.164062 495.246094 238.164062 C 493.523438 238.164062 492.113281 239.621094 492.113281 241.402344 M 526.191406 242.972656 C 526.605469 245.886719 527.953125 248.023438 529.1875 247.714844 C 532.503906 246.886719 531.917969 239.824219 528.4375 238.664062 C 526.382812 237.980469 525.675781 239.332031 526.191406 242.972656 M 552.78125 243.648438 C 552.78125 245.429688 553.789062 247.511719 555.027344 248.277344 C 556.261719 249.039062 557.273438 247.582031 557.273438 245.039062 C 557.273438 242.496094 556.261719 240.410156 555.027344 240.410156 C 553.789062 240.410156 552.78125 241.867188 552.78125 243.648438 M 573 244.640625 C 573 245.875 574.011719 247.511719 575.246094 248.277344 C 576.484375 249.039062 577.496094 248.652344 577.496094 247.417969 C 577.496094 246.183594 576.484375 244.546875 575.246094 243.78125 C 574.011719 243.019531 573 243.40625 573 244.640625 M 209.011719 246.382812 C 209.011719 248.71875 230.75 313.222656 236.34375 327.476562 C 239.277344 334.957031 242.714844 337.222656 242.714844 331.675781 C 242.714844 327.203125 213.816406 248.8125 211.203125 246.199219 C 209.78125 244.773438 209.011719 244.839844 209.011719 246.382812 M 346.070312 262.878906 C 346.070312 265.375 347.570312 267.375 349.441406 267.375 C 351.3125 267.375 352.8125 265.375 352.8125 262.878906 C 352.8125 260.382812 351.3125 258.386719 349.441406 258.386719 C 347.570312 258.386719 346.070312 260.382812 346.070312 262.878906 M 392.503906 259.886719 C 389.410156 262.976562 391.171875 267.375 395.5 267.375 C 398.496094 267.375 399.996094 265.875 399.996094 262.878906 C 399.996094 258.550781 395.597656 256.792969 392.503906 259.886719 M 436.699219 261.90625 C 434.824219 266.789062 439.578125 271.378906 442.984375 267.972656 C 445.859375 265.097656 444.078125 258.386719 440.4375 258.386719 C 439.125 258.386719 437.441406 259.96875 436.699219 261.90625 M 477.78125 261.863281 C 476.019531 266.449219 477.867188 269.621094 482.292969 269.621094 C 484.5 269.621094 485.433594 267.914062 484.96875 264.742188 C 484.078125 258.691406 479.675781 256.929688 477.78125 261.863281 M 514.988281 265.511719 C 516.046875 272.707031 521.324219 273.476562 521.324219 266.4375 C 521.324219 262.664062 520.089844 260.632812 517.796875 260.632812 C 515.453125 260.632812 514.511719 262.269531 514.988281 265.511719 M 546.039062 266.25 C 546.039062 269.339844 547.050781 271.867188 548.285156 271.867188 C 549.523438 271.867188 550.53125 269.339844 550.53125 266.25 C 550.53125 263.160156 549.523438 260.632812 548.285156 260.632812 C 547.050781 260.632812 546.039062 263.160156 546.039062 266.25 M 571.109375 269.621094 C 571.109375 272.710938 571.621094 273.976562 572.242188 272.429688 C 572.867188 270.886719 572.867188 268.359375 572.242188 266.8125 C 571.621094 265.269531 571.109375 266.53125 571.109375 269.621094 M 325.148438 282.304688 C 322.058594 285.394531 323.660156 290.160156 327.535156 289.414062 C 329.699219 288.996094 331.464844 287.238281 331.464844 285.507812 C 331.464844 281.957031 327.503906 279.953125 325.148438 282.304688 M 372.332031 282.304688 C 369.023438 285.613281 370.761719 292.425781 374.71875 291.664062 C 376.882812 291.246094 378.648438 288.980469 378.648438 286.628906 C 378.648438 282.15625 374.984375 279.652344 372.332031 282.304688 M 417.949219 284.246094 C 415.832031 286.800781 415.695312 288.46875 417.464844 290.234375 C 420.871094 293.644531 427.445312 290.65625 426.5625 286.105469 C 425.550781 280.898438 421.460938 280.015625 417.949219 284.246094 M 463.226562 282.902344 C 459.347656 285.300781 460.824219 293.210938 465.152344 293.210938 C 468.90625 293.210938 471.058594 285.859375 468.152344 282.957031 C 467.101562 281.902344 464.882812 281.878906 463.226562 282.902344 M 499.609375 286.621094 C 497.988281 290.847656 501.964844 295.457031 505.398438 293.332031 C 509.101562 291.042969 508.328125 283.101562 504.402344 283.101562 C 502.507812 283.101562 500.355469 284.6875 499.609375 286.621094 M 533.371094 286.472656 C 531.796875 290.570312 533.855469 296.582031 536.828125 296.582031 C 539.617188 296.582031 542.265625 288.332031 540.433594 285.367188 C 538.382812 282.050781 534.855469 282.601562 533.371094 286.472656 M 561.765625 290.964844 C 561.765625 294.054688 562.777344 296.582031 564.011719 296.582031 C 565.25 296.582031 566.261719 294.054688 566.261719 290.964844 C 566.261719 287.875 565.25 285.347656 564.011719 285.347656 C 562.777344 285.347656 561.765625 287.875 561.765625 290.964844 M 582.164062 291.152344 C 582.273438 293.769531 582.804688 294.300781 583.523438 292.511719 C 584.171875 290.890625 584.089844 288.949219 583.34375 288.203125 C 582.597656 287.457031 582.070312 288.785156 582.164062 291.152344 M 305.84375 305.4375 C 303.960938 306.597656 303.332031 308.945312 304.257812 311.359375 C 305.691406 315.09375 306.039062 315.109375 309.546875 311.601562 C 313.871094 307.277344 310.890625 302.316406 305.84375 305.4375 M 349.816406 307.070312 C 346.722656 310.160156 348.480469 314.558594 352.8125 314.558594 C 355.804688 314.558594 357.304688 313.058594 357.304688 310.0625 C 357.304688 305.734375 352.90625 303.976562 349.816406 307.070312 M 396.253906 309.089844 C 395.511719 311.027344 396.117188 313.808594 397.601562 315.269531 C 399.679688 317.320312 401.015625 316.953125 403.441406 313.664062 C 405.175781 311.320312 406.058594 308.539062 405.40625 307.488281 C 403.449219 304.316406 397.699219 305.324219 396.253906 309.089844 M 441.292969 308.832031 C 439.726562 312.910156 442 316.804688 445.945312 316.804688 C 449.382812 316.804688 451.46875 312.5 450.03125 308.378906 C 448.6875 304.53125 442.824219 304.835938 441.292969 308.832031 M 483.128906 308.941406 C 480.890625 311.632812 480.910156 313.007812 483.222656 315.792969 C 485.765625 318.859375 486.507812 318.882812 489.421875 315.96875 C 492.753906 312.636719 491.765625 305.570312 487.96875 305.570312 C 486.84375 305.570312 484.667969 307.085938 483.128906 308.941406 M 519.078125 313.433594 C 519.078125 316.929688 520.351562 319.050781 522.445312 319.050781 C 524.542969 319.050781 525.816406 316.929688 525.816406 313.433594 C 525.816406 309.9375 524.542969 307.816406 522.445312 307.816406 C 520.351562 307.816406 519.078125 309.9375 519.078125 313.433594 M 549.097656 311.1875 C 547.371094 315.6875 549.917969 321.941406 552.765625 320.183594 C 555.742188 318.34375 555.695312 307.816406 552.710938 307.816406 C 551.433594 307.816406 549.808594 309.332031 549.097656 311.1875 M 573 315.8125 C 573 319.074219 573.972656 320.964844 575.246094 320.175781 C 576.484375 319.410156 577.496094 316.824219 577.496094 314.425781 C 577.496094 312.023438 576.484375 310.0625 575.246094 310.0625 C 574.011719 310.0625 573 312.652344 573 315.8125 M 131.621094 325.585938 C 129.988281 328.234375 134.9375 339.492188 137.140625 338.132812 C 139.144531 336.894531 137.246094 326.140625 134.753906 324.597656 C 133.75 323.980469 132.34375 324.421875 131.621094 325.585938 M 286.527344 330.285156 C 284.890625 332.9375 287.015625 337.027344 290.03125 337.027344 C 291.195312 337.027344 292.144531 335.003906 292.144531 332.53125 C 292.144531 327.792969 288.875 326.484375 286.527344 330.285156 M 328.851562 331.558594 C 327.078125 336.175781 330.632812 339.625 334.621094 337.160156 C 338.015625 335.058594 336.453125 328.039062 332.589844 328.039062 C 331.273438 328.039062 329.59375 329.621094 328.851562 331.558594 M 374.363281 331.675781 C 373.550781 333.796875 373.863281 336.507812 375.054688 337.699219 C 378.300781 340.945312 384.710938 337.613281 383.84375 333.128906 C 382.832031 327.867188 376.214844 326.855469 374.363281 331.675781 M 421.714844 329.539062 C 420.890625 330.359375 420.214844 332.886719 420.214844 335.15625 C 420.214844 339.855469 428.242188 340.953125 429.808594 336.464844 C 431.960938 330.289062 426.035156 325.214844 421.714844 329.539062 M 465.714844 329.628906 C 464.171875 330.195312 462.90625 333.175781 462.90625 336.253906 C 462.90625 340.359375 463.945312 341.648438 466.8125 341.097656 C 471.066406 340.277344 473.46875 333.105469 470.417969 330.328125 C 469.375 329.378906 467.261719 329.0625 465.714844 329.628906 M 502.601562 331.785156 C 501.777344 332.605469 501.101562 335.207031 501.101562 337.566406 C 501.101562 343.6875 508.777344 341.679688 509.683594 335.316406 C 510.375 330.472656 506.0625 328.320312 502.601562 331.785156 M 534.78125 334.828125 C 531.65625 340.667969 534.019531 344.964844 538.375 341.351562 C 541.957031 338.378906 542.6875 330.285156 539.378906 330.285156 C 538.1875 330.285156 536.117188 332.328125 534.78125 334.828125 M 561.019531 334.03125 C 560.195312 334.851562 559.519531 337.464844 559.519531 339.835938 C 559.519531 345.660156 564.945312 343.585938 565.855469 337.414062 C 566.550781 332.6875 564.082031 330.964844 561.019531 334.03125 M 270.074219 354.253906 C 271.167969 359.890625 276.417969 360.664062 276.417969 355.1875 C 276.417969 352.429688 274.964844 350.507812 272.882812 350.507812 C 270.789062 350.507812 269.644531 352.035156 270.074219 354.253906 M 310.121094 355 C 310.121094 357.496094 311.621094 359.496094 313.492188 359.496094 C 315.363281 359.496094 316.859375 357.496094 316.859375 355 C 316.859375 352.503906 315.363281 350.507812 313.492188 350.507812 C 311.621094 350.507812 310.121094 352.503906 310.121094 355 M 353.566406 354.027344 C 352.820312 355.964844 353.316406 358.652344 354.664062 360 C 357.910156 363.246094 364.261719 358.175781 362.546875 353.714844 C 360.902344 349.429688 355.253906 349.628906 353.566406 354.027344 M 399.976562 353.898438 C 397.855469 356.453125 397.71875 358.121094 399.488281 359.886719 C 402.898438 363.296875 409.46875 360.308594 408.585938 355.753906 C 407.578125 350.550781 403.484375 349.667969 399.976562 353.898438 M 445.492188 352.121094 C 442.605469 353.15625 441.632812 359.941406 444.027344 362.335938 C 446.507812 364.816406 451.671875 361.304688 451.671875 357.140625 C 451.671875 352.410156 449.53125 350.671875 445.492188 352.121094 M 482.171875 356.5 C 481.378906 358.558594 481.785156 361.296875 483.070312 362.582031 C 486.019531 365.53125 493.355469 358.824219 491.125 355.214844 C 488.84375 351.527344 483.800781 352.25 482.171875 356.5 M 516.902344 357.109375 C 515.261719 360.175781 515.300781 361.921875 517.039062 362.996094 C 520.25 364.976562 526.808594 358.425781 524.828125 355.214844 C 522.539062 351.515625 519.511719 352.238281 516.902344 357.109375 M 546.246094 356.859375 C 543.214844 362.527344 543.101562 366.234375 545.960938 366.234375 C 549.585938 366.234375 553.492188 357.0625 550.949219 354.519531 C 549.449219 353.019531 547.882812 353.800781 546.246094 356.859375 M 143.945312 356.496094 C 143.808594 360.398438 166.433594 425.433594 168.789062 427.910156 C 172.523438 431.839844 170.953125 425.597656 160.601562 395.386719 C 150.695312 366.457031 144.128906 351.132812 143.945312 356.496094 M 568.769531 356.5 C 568.625 357.945312 567.855469 360.980469 567.054688 363.242188 C 565.925781 366.433594 566.226562 366.785156 568.386719 364.789062 C 569.921875 363.375 570.695312 360.339844 570.101562 358.046875 C 569.511719 355.753906 568.910156 355.058594 568.769531 356.5 M 257.757812 374.410156 C 255.960938 376.207031 257.988281 379.714844 260.824219 379.714844 C 261.988281 379.714844 262.9375 378.199219 262.9375 376.347656 C 262.9375 372.871094 260.285156 371.882812 257.757812 374.410156 M 294.394531 377.46875 C 294.394531 379.964844 295.890625 381.960938 297.761719 381.960938 C 299.632812 381.960938 301.132812 379.964844 301.132812 377.46875 C 301.132812 374.972656 299.632812 372.976562 297.761719 372.976562 C 295.890625 372.976562 294.394531 374.972656 294.394531 377.46875 M 334.835938 377.46875 C 334.835938 380.851562 336.007812 382.066406 338.769531 381.535156 C 340.933594 381.117188 342.699219 379.289062 342.699219 377.46875 C 342.699219 375.648438 340.933594 373.820312 338.769531 373.402344 C 336.007812 372.871094 334.835938 374.085938 334.835938 377.46875 M 378.28125 376.496094 C 377.539062 378.433594 378.082031 381.167969 379.488281 382.578125 C 382.652344 385.742188 390.144531 379.28125 387.769531 375.4375 C 385.527344 371.808594 379.835938 372.445312 378.28125 376.496094 M 422.382812 376.441406 C 420.308594 378.941406 420.1875 380.585938 421.957031 382.355469 C 425.5 385.898438 431.449219 382.878906 431.449219 377.539062 C 431.449219 372.140625 426.453125 371.539062 422.382812 376.441406 M 463.355469 375.671875 C 459.296875 379.730469 460.113281 384.210938 464.914062 384.210938 C 469.332031 384.210938 472.84375 378.578125 470.644531 375.019531 C 468.925781 372.242188 466.574219 372.453125 463.355469 375.671875 M 498.878906 376.316406 C 497.355469 378.15625 496.738281 381.300781 497.507812 383.3125 C 498.640625 386.269531 499.542969 386.4375 502.253906 384.1875 C 505.855469 381.195312 506.863281 372.976562 503.625 372.976562 C 502.539062 372.976562 500.402344 374.480469 498.878906 376.316406 M 527.960938 379.910156 C 526.582031 382.484375 526.015625 385.15625 526.703125 385.84375 C 528.5625 387.703125 534.804688 381.898438 534.804688 378.320312 C 534.804688 373.664062 530.804688 374.59375 527.960938 379.910156 M 553.3125 377.835938 C 549.9375 381.210938 549.65625 386.457031 552.847656 386.457031 C 555.5625 386.457031 558.050781 380.925781 556.894531 377.457031 C 556.359375 375.851562 555.171875 375.976562 553.3125 377.835938 M 248.550781 395.09375 C 247.773438 396.351562 248.230469 398.058594 249.566406 398.882812 C 253.023438 401.019531 255.253906 398.09375 252.367188 395.210938 C 250.753906 393.597656 249.5 393.558594 248.550781 395.09375 M 281.257812 396.683594 C 281.6875 398.886719 283.394531 401.140625 285.058594 401.695312 C 286.992188 402.339844 287.800781 401.257812 287.304688 398.695312 C 286.878906 396.496094 285.167969 394.238281 283.503906 393.6875 C 281.574219 393.042969 280.761719 394.121094 281.257812 396.683594 M 319.109375 397.691406 C 319.109375 400.1875 320.605469 402.183594 322.476562 402.183594 C 324.351562 402.183594 325.847656 400.1875 325.847656 397.691406 C 325.847656 395.195312 324.351562 393.195312 322.476562 393.195312 C 320.605469 393.195312 319.109375 395.195312 319.109375 397.691406 M 359.910156 396.136719 C 356.855469 399.816406 358.683594 402.183594 364.585938 402.183594 C 367.375 402.183594 368.613281 400.878906 368.140625 398.4375 C 367.175781 393.453125 363.085938 392.308594 359.910156 396.136719 M 402.222656 396.585938 C 400.101562 399.144531 399.96875 400.808594 401.734375 402.578125 C 405.144531 405.984375 411.714844 403 410.832031 398.445312 C 409.824219 393.242188 405.734375 392.359375 402.222656 396.585938 M 443.132812 395.894531 C 439.492188 399.535156 439.71875 404.429688 443.535156 404.429688 C 447.679688 404.429688 452.421875 398.476562 450.609375 395.542969 C 448.710938 392.472656 446.449219 392.578125 443.132812 395.894531 M 477.242188 398.707031 C 476.554688 400.5 476.675781 403.078125 477.511719 404.433594 C 479.429688 407.539062 485.375 403.085938 485.375 398.539062 C 485.375 394.421875 478.832031 394.558594 477.242188 398.707031 M 508.683594 398.738281 C 506.359375 404.796875 508.890625 407.554688 513 403.449219 C 515.105469 401.339844 516.828125 398.675781 516.828125 397.53125 C 516.828125 394.144531 510.0625 395.148438 508.683594 398.738281 M 534.917969 399.726562 C 531.992188 405.191406 531.953125 406.679688 534.726562 406.679688 C 538.003906 406.679688 541.960938 398.210938 539.417969 396.640625 C 538.238281 395.914062 536.214844 397.300781 534.917969 399.726562 M 553.3125 400.304688 C 551.785156 401.832031 550.53125 404.613281 550.53125 406.484375 C 550.53125 409.429688 551.023438 409.398438 554.164062 406.257812 C 556.160156 404.261719 557.414062 401.476562 556.945312 400.074219 C 556.328125 398.230469 555.320312 398.296875 553.3125 400.304688 M 242.714844 415.664062 C 242.714844 416.902344 243.789062 417.914062 245.09375 417.914062 C 246.402344 417.914062 246.851562 416.902344 246.085938 415.664062 C 245.320312 414.429688 244.253906 413.417969 243.707031 413.417969 C 243.160156 413.417969 242.714844 414.429688 242.714844 415.664062 M 271.925781 416.601562 C 271.925781 418.558594 273.527344 420.160156 275.480469 420.160156 C 277.4375 420.160156 278.640625 418.960938 278.152344 417.492188 C 276.761719 413.324219 271.925781 412.632812 271.925781 416.601562 M 306.023438 416.90625 C 307.039062 421.789062 311.027344 422.085938 311.941406 417.351562 C 312.414062 414.890625 311.3125 413.417969 308.996094 413.417969 C 306.839844 413.417969 305.601562 414.871094 306.023438 416.90625 M 342.699219 415.664062 C 340.820312 418.707031 343.355469 422.40625 347.328125 422.40625 C 349.109375 422.40625 350.5625 420.382812 350.5625 417.914062 C 350.5625 413.261719 345.140625 411.710938 342.699219 415.664062 M 382.3125 416.433594 C 379.347656 420.011719 381.179688 422.40625 386.886719 422.40625 C 389.507812 422.40625 391.007812 420.773438 391.007812 417.914062 C 391.007812 412.789062 386.042969 411.945312 382.3125 416.433594 M 420.972656 416.9375 C 420.226562 418.875 420.832031 421.65625 422.316406 423.117188 C 424.394531 425.167969 425.730469 424.800781 428.160156 421.515625 C 429.890625 419.167969 430.773438 416.390625 430.121094 415.335938 C 428.164062 412.164062 422.414062 413.171875 420.972656 416.9375 M 458.863281 416.113281 C 454.835938 420.140625 455.589844 425.089844 460.097656 424.234375 C 462.261719 423.820312 464.351562 421.21875 464.75 418.453125 C 465.535156 412.917969 463.046875 411.929688 458.863281 416.113281 M 490.316406 416.113281 C 487.179688 419.25 486.722656 424.652344 489.59375 424.652344 C 490.675781 424.652344 492.859375 423.09375 494.441406 421.1875 C 498.089844 416.792969 494.300781 412.132812 490.316406 416.113281 M 514.582031 420.160156 C 512.664062 423.746094 512.875 424.652344 515.628906 424.652344 C 517.523438 424.652344 519.078125 424.230469 519.078125 423.714844 C 519.078125 423.195312 519.691406 421.175781 520.441406 419.21875 C 522.421875 414.054688 517.421875 414.855469 514.582031 420.160156 M 534.703125 420.351562 C 533.320312 422.929688 532.863281 425.707031 533.683594 426.527344 C 535.207031 428.050781 541.546875 420.761719 541.546875 417.484375 C 541.546875 413.914062 537.167969 415.75 534.703125 420.351562 M 265.605469 433.78125 C 266.144531 435.402344 267.917969 437.171875 269.539062 437.714844 C 271.222656 438.273438 272.066406 437.433594 271.503906 435.746094 C 270.960938 434.125 269.191406 432.355469 267.574219 431.816406 C 265.886719 431.253906 265.042969 432.097656 265.605469 433.78125 M 295.671875 433.386719 C 294.214844 435.742188 299.820312 440.941406 301.746094 439.019531 C 303.480469 437.28125 301.191406 431.394531 298.777344 431.394531 C 297.746094 431.394531 296.351562 432.289062 295.671875 433.386719 M 329.097656 433.835938 C 326.785156 437.582031 331.988281 441.878906 335.089844 438.777344 C 337.683594 436.1875 336.058594 431.394531 332.589844 431.394531 C 331.5 431.394531 329.929688 432.492188 329.097656 433.835938 M 365.242188 433.519531 C 363.265625 436.71875 365.785156 440.378906 369.957031 440.378906 C 371.925781 440.378906 373.054688 438.800781 372.632812 436.636719 C 371.761719 432.121094 367.273438 430.234375 365.242188 433.519531 M 402.261719 434.738281 C 400.011719 437.453125 400.199219 438.355469 403.261719 439.527344 C 407.691406 441.226562 412.410156 437.371094 410.226562 433.835938 C 408.152344 430.480469 405.550781 430.773438 402.261719 434.738281 M 438.753906 432.878906 C 435.695312 434.113281 434.8125 442.628906 437.742188 442.628906 C 440.539062 442.628906 444.929688 437.550781 444.929688 434.3125 C 444.929688 431.28125 443.523438 430.953125 438.753906 432.878906 M 468.175781 437.105469 C 467.441406 439.015625 467.453125 441.179688 468.191406 441.921875 C 469.792969 443.523438 476.386719 438.445312 476.386719 435.613281 C 476.386719 432.21875 469.574219 433.460938 468.175781 437.105469 M 494.363281 438.132812 C 493.039062 440.605469 492.800781 442.628906 493.832031 442.628906 C 496.222656 442.628906 501.101562 437.800781 501.101562 435.4375 C 501.101562 431.949219 496.738281 433.695312 494.363281 438.132812 M 515.71875 438.121094 C 513.476562 440.597656 512.683594 442.628906 513.960938 442.628906 C 516.789062 442.628906 522.390625 436.207031 520.882812 434.695312 C 520.285156 434.101562 517.960938 435.640625 515.71875 438.121094 M 289.898438 451.480469 C 289.898438 452.644531 290.910156 454.222656 292.144531 454.984375 C 293.382812 455.75 294.394531 454.796875 294.394531 452.871094 C 294.394531 450.945312 293.382812 449.367188 292.144531 449.367188 C 290.910156 449.367188 289.898438 450.316406 289.898438 451.480469 M 319.621094 452.039062 C 321.011719 456.203125 325.847656 456.890625 325.847656 452.925781 C 325.847656 450.96875 324.246094 449.367188 322.292969 449.367188 C 320.335938 449.367188 319.132812 450.566406 319.621094 452.039062 M 350.5625 452.738281 C 350.5625 455.050781 352.035156 456.152344 354.496094 455.679688 C 359.230469 454.769531 358.933594 450.78125 354.054688 449.765625 C 352.015625 449.339844 350.5625 450.578125 350.5625 452.738281 M 384.265625 452.738281 C 384.265625 454.609375 386.265625 456.109375 388.761719 456.109375 C 391.257812 456.109375 393.253906 454.609375 393.253906 452.738281 C 393.253906 450.867188 391.257812 449.367188 388.761719 449.367188 C 386.265625 449.367188 384.265625 450.867188 384.265625 452.738281 M 417.242188 452.519531 C 414.660156 459.242188 421.203125 460.417969 424.710938 453.863281 C 426.726562 450.089844 426.417969 449.367188 422.78125 449.367188 C 420.398438 449.367188 417.90625 450.785156 417.242188 452.519531 M 447.953125 452.835938 C 447.21875 454.742188 447.1875 456.867188 447.875 457.554688 C 449.84375 459.519531 453.917969 456.183594 453.917969 452.605469 C 453.917969 448.292969 449.632812 448.460938 447.953125 452.835938 M 474.09375 452.792969 C 472.53125 454.675781 471.878906 456.84375 472.640625 457.605469 C 474.273438 459.238281 480.878906 454.210938 480.878906 451.339844 C 480.878906 448.246094 477.21875 449.027344 474.09375 452.792969 M 496.769531 452.546875 C 495.09375 454.566406 494.386719 456.882812 495.203125 457.695312 C 497.300781 459.796875 501.789062 454.796875 500.710938 451.566406 C 500.089844 449.703125 498.875 450.007812 496.769531 452.546875 M 511.125 456.207031 C 507.710938 459.976562 507.621094 460.546875 510.605469 459.402344 C 512.601562 458.636719 514.789062 456.570312 515.460938 454.8125 C 517.140625 450.4375 516.019531 450.796875 511.125 456.207031 M 313.707031 464.746094 C 312.929688 466.003906 313.390625 467.707031 314.726562 468.535156 C 318.183594 470.671875 320.410156 467.746094 317.527344 464.863281 C 315.914062 463.25 314.65625 463.210938 313.707031 464.746094 M 288.777344 467.34375 C 289.539062 468.578125 291.175781 469.589844 292.410156 469.589844 C 293.648438 469.589844 294.035156 468.578125 293.269531 467.34375 C 292.503906 466.105469 290.871094 465.097656 289.632812 465.097656 C 288.398438 465.097656 288.011719 466.105469 288.777344 467.34375 M 341.914062 467.230469 C 342.40625 468.714844 343.542969 469.851562 344.441406 469.757812 C 347.128906 469.480469 346.605469 466.398438 343.710938 465.433594 C 342.226562 464.9375 341.417969 465.746094 341.914062 467.230469 M 370.785156 468.652344 C 370.785156 472.621094 375.621094 471.929688 377.011719 467.765625 C 377.5 466.296875 376.300781 465.097656 374.34375 465.097656 C 372.386719 465.097656 370.785156 466.699219 370.785156 468.652344 M 401.027344 467.492188 C 400.210938 468.808594 400.105469 470.453125 400.796875 471.140625 C 402.644531 472.988281 408.980469 470.105469 408.980469 467.414062 C 408.980469 464.363281 402.921875 464.425781 401.027344 467.492188 M 427.988281 467.492188 C 427.171875 468.808594 427.070312 470.453125 427.757812 471.140625 C 429.605469 472.988281 435.945312 470.105469 435.945312 467.414062 C 435.945312 464.363281 429.882812 464.425781 427.988281 467.492188 M 454.949219 467.492188 C 454.132812 468.808594 454.007812 470.425781 454.667969 471.089844 C 456.277344 472.695312 460.660156 469.859375 460.660156 467.210938 C 460.660156 464.339844 456.78125 464.53125 454.949219 467.492188 M 474.589844 467.792969 C 470.347656 472.035156 471.4375 474.484375 476.386719 471.835938 C 478.859375 470.511719 480.878906 468.453125 480.878906 467.265625 C 480.878906 464.285156 477.839844 464.542969 474.589844 467.792969 M 489.582031 471.082031 C 486.785156 474.46875 486.96875 474.570312 491.554688 472.125 C 496.78125 469.339844 498.070312 467.34375 494.636719 467.34375 C 493.554688 467.34375 491.277344 469.027344 489.582031 471.082031 M 312.367188 480.824219 C 312.367188 482.058594 313.4375 483.070312 314.746094 483.070312 C 316.054688 483.070312 316.5 482.058594 315.738281 480.824219 C 314.972656 479.589844 313.90625 478.578125 313.359375 478.578125 C 312.8125 478.578125 312.367188 479.589844 312.367188 480.824219 M 334.835938 480.824219 C 334.835938 482.058594 336.414062 483.070312 338.339844 483.070312 C 340.265625 483.070312 341.21875 482.058594 340.453125 480.824219 C 339.6875 479.589844 338.113281 478.578125 336.949219 478.578125 C 335.785156 478.578125 334.835938 479.589844 334.835938 480.824219 M 359.984375 480.992188 C 360.425781 482.320312 361.75 483.40625 362.921875 483.40625 C 364.09375 483.40625 365.417969 482.320312 365.859375 480.992188 C 366.304688 479.664062 364.980469 478.578125 362.921875 478.578125 C 360.859375 478.578125 359.539062 479.664062 359.984375 480.992188 M 386.511719 482.132812 C 386.511719 486.101562 391.351562 485.410156 392.738281 481.246094 C 393.230469 479.777344 392.027344 478.578125 390.070312 478.578125 C 388.117188 478.578125 386.511719 480.179688 386.511719 482.132812 M 412.261719 480.972656 C 411.445312 482.289062 411.320312 483.910156 411.976562 484.570312 C 413.585938 486.179688 417.96875 483.34375 417.96875 480.691406 C 417.96875 477.820312 414.089844 478.011719 412.261719 480.972656 M 434.726562 480.972656 C 433.914062 482.289062 433.785156 483.910156 434.445312 484.570312 C 436.054688 486.179688 440.4375 483.34375 440.4375 480.691406 C 440.4375 477.820312 436.558594 478.011719 434.726562 480.972656 M 453.917969 481.945312 C 452.359375 483.828125 452.113281 485.316406 453.367188 485.316406 C 454.605469 485.316406 456.875 483.800781 458.414062 481.945312 C 459.972656 480.066406 460.214844 478.578125 458.960938 478.578125 C 457.726562 478.578125 455.457031 480.09375 453.917969 481.945312 M 333.710938 492.058594 C 334.476562 493.292969 335.546875 494.304688 336.09375 494.304688 C 336.636719 494.304688 337.082031 493.292969 337.082031 492.058594 C 337.082031 490.820312 336.011719 489.8125 334.703125 489.8125 C 333.394531 489.8125 332.949219 490.820312 333.710938 492.058594 M 377.527344 492.058594 C 377.527344 493.292969 378.597656 494.304688 379.90625 494.304688 C 381.214844 494.304688 381.660156 493.292969 380.894531 492.058594 C 380.132812 490.820312 379.0625 489.8125 378.515625 489.8125 C 377.972656 489.8125 377.527344 490.820312 377.527344 492.058594 M 398.871094 492.058594 C 398.105469 493.292969 399.058594 494.304688 400.984375 494.304688 C 402.910156 494.304688 404.488281 493.292969 404.488281 492.058594 C 404.488281 490.820312 403.539062 489.8125 402.375 489.8125 C 401.210938 489.8125 399.636719 490.820312 398.871094 492.058594 M 419.46875 491.308594 C 418.644531 492.132812 417.96875 493.851562 417.96875 495.128906 C 417.96875 496.535156 419.015625 496.402344 420.628906 494.792969 C 422.089844 493.328125 422.765625 491.609375 422.125 490.972656 C 421.488281 490.335938 420.289062 490.484375 419.46875 491.308594 M 434.820312 494.304688 C 434.054688 495.539062 434.441406 496.550781 435.679688 496.550781 C 436.914062 496.550781 438.550781 495.539062 439.3125 494.304688 C 440.078125 493.070312 439.691406 492.058594 438.457031 492.058594 C 437.21875 492.058594 435.585938 493.070312 434.820312 494.304688 "/></g></svg>